<?xml version="1.0" encoding="UTF-8"?>
<svg id="Capa_1" data-name="Capa 1" xmlns="http://www.w3.org/2000/svg" viewBox="0 0 718.48 352.32">
  <defs>
    <style>
      .cls-1 {
        fill: #a59571;
        stroke-width: 0px;
      }
    </style>
  </defs>
  <path class="cls-1" d="m138.75,319.59h-31.65c-22.83,0-45.66-.08-68.49.02-11.03.05-20.71-3.4-28.53-11.11-15.95-15.73-12.58-40.23,7.4-51.05,21.21-11.48,42.85-22.19,64.31-33.2,64.39-33.05,128.78-66.11,193.23-99.06,3.23-1.65,4.8-3.4,4.49-7.18-.37-4.47-.12-8.99-.08-13.49.08-8.6,3.15-11.92,11.75-13.09,3.12-.42,6.29-.9,9.26-1.89,18.12-6.06,27.3-23.26,22.62-42.12-4.43-17.86-21.08-29.06-39.31-26.06-13.49,2.22-27.05,15.06-27.04,27.58,0,7.04-4.93,10.95-11.27,10.4-5.94-.52-9.43-5.01-9.12-12.05.53-12.11,5.77-22.16,14.25-30.48,15.89-15.59,34.83-20.7,56.03-13.8,21.88,7.12,34.3,23.18,37.49,45.61,4.25,29.86-11.71,53.26-40.72,61.74-1.34.39-2.78,2.38-3.13,3.87-1.44,6.17,1.15,9.53,7.07,12.45,26.71,13.18,53.12,26.96,79.54,40.71,3.21,1.67,5.61,1.63,8.69-.09,6.54-3.64,13.39-6.72,19.88-10.45,1.59-.92,3.05-3.37,3.21-5.23.44-5.13.09-10.32.18-15.48.13-7.18,3.25-10.49,10.25-11.84,4.87-.94,9.87-1.88,14.39-3.8,13.99-5.92,21.06-18.93,19.74-35.29-1.17-14.6-11.86-27.29-25.95-30.81-14-3.5-29.33,2.26-37.02,14.55-2.2,3.51-3.43,7.93-3.99,12.09-.97,7.24-4.94,11.54-11.41,11.06-6.18-.46-9.88-5.21-9.22-12.43,1.91-20.98,14.12-34.56,32.61-42.44,29.44-12.56,61.75,2.3,72.54,32.61,11.02,30.97-5.12,63.29-36.08,72.48-2.07.62-5.68-.03-5.33,3.81.36,4.05-1.83,8.39,4.04,11.38,84.64,43.16,169.13,86.62,253.68,129.94,9.03,4.63,16.71,10.41,19.95,20.52,6.03,18.82-7.06,39.35-27.63,43.32-3.09.6-6.27.97-9.41.98-167.47.05-334.94.1-502.41-.06-16-.02-28.62-6.98-35.64-22.05-1.45-3.11-2.01-6.64-3.16-10.58h-.01Zm46.26-21.33c.09.34.18.68.27,1.03h3.47c116.61,0,233.23,0,349.84-.01,1.99,0,4.02-.03,5.97-.36,7.71-1.3,13.48-6.16,14.12-12.21.77-7.35-4.42-10.49-9.96-13.33-51.07-26.18-102.14-52.35-153.14-78.67-3.39-1.75-5.88-1.57-9.18.13-57.22,29.49-114.51,58.85-171.79,88.24-9.87,5.07-19.74,10.13-29.61,15.2v-.02Zm183.33-117.32c-2.07-1.1-3.63-1.96-5.22-2.78-22.94-11.78-45.93-23.47-68.79-35.41-3.36-1.76-5.81-1.63-9.12.07-84.78,43.61-169.63,87.09-254.45,130.61-1.63.83-3.26,1.7-4.75,2.75-6.74,4.78-7.14,13.91-.2,18.46,3.72,2.44,8.56,4.39,12.91,4.43,34.66.36,69.32.23,103.98.12,1.57,0,3.29-1.04,4.67-1.98,4.79-3.24,9.15-7.26,14.25-9.89,66.99-34.54,134.08-68.89,201.15-103.3,1.75-.9,3.44-1.9,5.58-3.09h0Zm-207.56,138.65c-.12.9-.25,1.23-.18,1.52.1.48.28.96.51,1.4,3.84,7.27,10.38,9.28,17.99,9.28,165.79,0,331.57,0,497.36-.02,2.49,0,5-.13,7.47-.45,6.98-.89,12.98-5.98,14.02-11.75.94-5.18-2.1-9.55-9.24-13.29-.59-.31-1.18-.62-1.77-.92-41.3-21.19-82.6-42.37-123.91-63.56-43.37-22.25-86.74-44.51-130.16-66.67-1.69-.86-4.22-1.5-5.82-.87-4.39,1.73-8.48,4.2-13.27,6.68,2.04,1.11,3.46,1.93,4.92,2.68,27.08,13.91,54.18,27.79,81.25,41.72,21.15,10.88,42.57,21.3,63.33,32.9,19.01,10.62,21.5,34.79,6.08,50.23-8.13,8.13-18.08,11.2-29.46,11.19-124.3-.09-248.6-.05-372.9-.05h-6.22v-.02Z"/>
</svg>